<svg xmlns="http://www.w3.org/2000/svg" viewBox="0 0 1024 1024">
  <defs>
    <linearGradient id="voidBase" x1="0%" y1="0%" x2="100%" y2="100%">
      <stop offset="0%" stop-color="#141418"/>
      <stop offset="100%" stop-color="#0a0a0c"/>
    </linearGradient>
    <linearGradient id="silver" x1="0%" y1="0%" x2="0%" y2="100%">
      <stop offset="0%" stop-color="#f0f0f4"/>
      <stop offset="18%" stop-color="#c8c8ce"/>
      <stop offset="45%" stop-color="#8e8e96"/>
      <stop offset="62%" stop-color="#dcdce2"/>
      <stop offset="82%" stop-color="#a8a8b0"/>
      <stop offset="100%" stop-color="#787880"/>
    </linearGradient>
    <linearGradient id="silverEdge" x1="0%" y1="0%" x2="100%" y2="100%">
      <stop offset="0%" stop-color="#ffffff" stop-opacity="0.55"/>
      <stop offset="100%" stop-color="#ffffff" stop-opacity="0"/>
    </linearGradient>
    <filter id="softGlow" x="-20%" y="-20%" width="140%" height="140%">
      <feGaussianBlur stdDeviation="6" result="blur"/>
      <feMerge>
        <feMergeNode in="blur"/>
        <feMergeNode in="SourceGraphic"/>
      </feMerge>
    </filter>
  </defs>
  <rect width="1024" height="1024" rx="228" fill="url(#voidBase)"/>
  <rect x="48" y="48" width="928" height="928" rx="196" fill="none" stroke="#ffffff" stroke-opacity="0.05" stroke-width="4"/>
  <!-- Silver metal N -->
  <g filter="url(#softGlow)">
    <path
      fill="url(#silver)"
      d="M 292 268 L 292 756 L 382 756 L 382 438 L 642 756 L 732 756 L 732 268 L 642 268 L 642 586 L 382 268 Z"
    />
    <path
      fill="url(#silverEdge)"
      fill-opacity="0.35"
      d="M 292 268 L 292 756 L 382 756 L 382 438 L 642 756 L 732 756 L 732 268 L 642 268 L 642 586 L 382 268 Z"
    />
  </g>
</svg>
